<?xml version="1.0" encoding="UTF-8" standalone="no"?>
<!-- Created with Inkscape (http://www.inkscape.org/) -->

<svg
   width="41.5mm"
   height="8.8999996mm"
   viewBox="0 0 41.5 8.8999996"
   version="1.1"
   id="svg1"
   xmlns="http://www.w3.org/2000/svg"
   xmlns:svg="http://www.w3.org/2000/svg">
  <defs
     id="defs1" />
  <g
     id="layer1">
    <path
       d="m 38.841534,108.766 h 4.7648 c 0.746036,-0.47829 0.968258,-0.81302 1.363194,-1.671 0.148769,-0.8982 0.198079,-2.03235 0.209189,-3.35052 H 35.665 v -0.11174 c 0,-2.48159 0.661778,-4.218699 1.985334,-5.211334 0.550599,-0.416908 1.212376,-0.665065 1.985333,-0.744476 h 4.7648 v 0.823066 h -4.7648 c -0.686001,0.445274 -0.929025,0.747257 -1.170374,1.281577 -0.320442,0.838297 -0.352658,0.977177 -0.402011,2.473947 H 47.577 v 1.37722 c 0,2.48158 -0.661777,4.21869 -1.985333,5.21133 -0.550599,0.41691 -1.212377,0.66506 -1.985333,0.74447 h -4.7648 z"
       id="path58"
       style="font-size:23.3726px;line-height:1.25;font-family:Omicron;-inkscape-font-specification:Omicron;letter-spacing:0px;word-spacing:0px;display:inline;fill:#2c5f8d;fill-opacity:1;stroke-width:0.313672"
       aria-label="s"
       transform="matrix(0.48599759,0,0,0.47862908,16.923395,-45.142145)" />
    <circle
       style="display:inline;fill:#eeeeee;fill-opacity:1;stroke:none;stroke-width:0.0268438;stroke-opacity:1"
       id="circle58"
       cx="61.955334"
       cy="-83.895782"
       transform="matrix(-0.24299879,0.41450495,-0.42088625,-0.23931455,16.923395,-45.142145)"
       r="1" />
    <circle
       style="display:inline;fill:#eeeeee;fill-opacity:1;stroke:none;stroke-width:0.0268437;stroke-opacity:1"
       id="circle59"
       cx="41.678001"
       cy="111.623"
       r="1"
       transform="matrix(0.48599759,0,0,0.47862908,16.923395,-45.142145)" />
    <circle
       style="display:inline;fill:#eeeeee;fill-opacity:1;stroke:none;stroke-width:0.0268437;stroke-opacity:1"
       id="circle60"
       cx="33.591209"
       cy="103.26503"
       r="1"
       transform="matrix(0.48599759,0,0,0.47862908,16.923395,-45.142145)" />
    <circle
       style="display:inline;fill:#eeeeee;fill-opacity:1;stroke:none;stroke-width:0.0268437;stroke-opacity:1"
       id="circle61"
       cx="49.338211"
       cy="103.26479"
       r="1"
       transform="matrix(0.48599759,0,0,0.47862908,16.923395,-45.142145)" />
    <circle
       style="display:inline;fill:#eeeeee;fill-opacity:1;stroke:none;stroke-width:0.0134219;stroke-opacity:1"
       id="circle62"
       cx="110.46454"
       cy="-45.351555"
       r="0.5"
       transform="matrix(0,0.47862908,-0.48599759,0,16.923395,-45.142145)" />
    <circle
       style="display:inline;fill:#eeeeee;fill-opacity:1;stroke:none;stroke-width:0.0134219;stroke-opacity:1"
       id="circle63"
       cx="11.717292"
       cy="-103.65095"
       r="0.5"
       transform="matrix(0.48599759,0,0,0.47862908,29.451218,57.294095)" />
    <circle
       style="display:inline;fill:#eeeeee;fill-opacity:1;stroke:none;stroke-width:0.0134219;stroke-opacity:1"
       id="circle64"
       cx="11.717292"
       cy="-103.65095"
       r="0.5"
       transform="matrix(0.42088625,0.23931455,-0.24299879,0.41450495,3.6141292,46.431938)" />
    <circle
       style="display:inline;fill:#eeeeee;fill-opacity:1;stroke:none;stroke-width:0.0134219;stroke-opacity:1"
       id="circle65"
       cx="11.717292"
       cy="-103.65095"
       r="0.5"
       transform="matrix(0,0.47862908,-0.48599759,0,-16.594912,-3.0964688)" />
    <circle
       style="display:inline;fill:#eeeeee;fill-opacity:1;stroke:none;stroke-width:0.0134219;stroke-opacity:1"
       id="circle66"
       cx="48.272346"
       cy="107.60626"
       r="0.5"
       transform="matrix(0.48599759,0,0,0.47862908,16.923395,-45.142145)" />
    <ellipse
       style="display:inline;fill:#eeeeee;fill-opacity:1;stroke:none;stroke-width:0.00647366;stroke-opacity:1"
       id="circle67"
       cx="-36.179592"
       cy="17.818312"
       transform="matrix(-0.86930159,-0.49428205,0.50573984,-0.86268605,0,0)"
       rx="0.24208298"
       ry="0.2402409" />
    <circle
       style="display:none;fill:none;fill-opacity:1;stroke:#ff0000;stroke-width:0.146254;stroke-opacity:1"
       id="circle68"
       cx="-15.871542"
       cy="110.44576"
       r="7.9268732"
       transform="matrix(0.42088625,-0.23931455,0.24299879,0.41450495,16.923395,-45.142145)" />
    <circle
       style="display:inline;fill:#eeeeee;fill-opacity:1;stroke:none;stroke-width:0.0134219;stroke-opacity:1"
       id="circle69"
       cx="11.717292"
       cy="-103.65095"
       r="0.5"
       transform="matrix(-0.24299879,0.41450495,-0.42088625,-0.23931455,-5.5468713,-28.573651)" />
    <circle
       style="display:inline;fill:#eeeeee;fill-opacity:1;stroke:none;stroke-width:0.0134219;stroke-opacity:1"
       id="circle70"
       cx="11.717292"
       cy="-103.65095"
       r="0.5"
       transform="matrix(-0.48599759,0,0,-0.47862908,44.744024,-48.476294)" />
    <text
       xml:space="preserve"
       style="font-size:6.35px;line-height:1.25;font-family:System-ui;-inkscape-font-specification:System-ui;letter-spacing:0px;word-spacing:0px;fill:#eeeeee;fill-opacity:1;stroke-width:0.264583"
       x="73.7118"
       y="51.925117"
       id="text58"
       transform="translate(-74.182354,-44.6571)"><tspan
         id="tspan58"
         style="font-size:6.35px;fill:#eeeeee;fill-opacity:1;stroke-width:0.264583"
         x="73.7118"
         y="51.925117">Powered by</tspan></text>
  </g>
</svg>
